<svg width="512" height="512" viewBox="0 0 512 512" xmlns="http://www.w3.org/2000/svg">
  <defs>
    <linearGradient id="logoGradient" x1="0%" y1="0%" x2="100%" y2="100%">
      <stop offset="0%" style="stop-color:#8b5cf6;stop-opacity:1" />
      <stop offset="100%" style="stop-color:#7c3aed;stop-opacity:1" />
    </linearGradient>
  </defs>
  <rect width="512" height="512" fill="#1e1b4b"/>
  <path d="M128 128 C 128 64, 192 64, 256 128 C 320 192, 384 192, 384 256 C 384 320, 320 320, 256 256 C 192 192, 128 192, 128 128 Z" 
        fill="url(#logoGradient)" 
        stroke="none"/>
  <path d="M384 384 C 384 448, 320 448, 256 384 C 192 320, 128 320, 128 256 C 128 192, 192 192, 256 256 C 320 320, 384 320, 384 384 Z" 
        fill="url(#logoGradient)" 
        stroke="none"/>
</svg>
